<?xml version="1.0" encoding="UTF-8" standalone="no"?>
<!-- Created with Inkscape (http://www.inkscape.org/) -->

<svg
   width="320"
   height="36.000004"
   viewBox="0 0 84.666662 9.5250008"
   version="1.1"
   id="svg47047"
   inkscape:version="1.2.2 (732a01da63, 2022-12-09)"
   sodipodi:docname="knoppen-specifiek-kort.svg"
   xml:space="preserve"
   xmlns:inkscape="http://www.inkscape.org/namespaces/inkscape"
   xmlns:sodipodi="http://sodipodi.sourceforge.net/DTD/sodipodi-0.dtd"
   xmlns:xlink="http://www.w3.org/1999/xlink"
   xmlns="http://www.w3.org/2000/svg"
   xmlns:svg="http://www.w3.org/2000/svg"><sodipodi:namedview
     id="namedview47049"
     pagecolor="#ffffff"
     bordercolor="#000000"
     borderopacity="0.25"
     inkscape:showpageshadow="2"
     inkscape:pageopacity="0.0"
     inkscape:pagecheckerboard="0"
     inkscape:deskcolor="#d1d1d1"
     inkscape:document-units="mm"
     showgrid="false"
     inkscape:zoom="2.9540684"
     inkscape:cx="163.84184"
     inkscape:cy="91.060857"
     inkscape:window-width="1920"
     inkscape:window-height="1009"
     inkscape:window-x="-8"
     inkscape:window-y="-8"
     inkscape:window-maximized="1"
     inkscape:current-layer="layer1" /><defs
     id="defs47044"><rect
       x="111.06633"
       y="235.53722"
       width="226.92001"
       height="105.32152"
       id="rect259" /><rect
       x="133.56683"
       y="237.93089"
       width="122.07723"
       height="52.182026"
       id="rect56346-8" /><rect
       x="133.56683"
       y="237.93089"
       width="122.07723"
       height="52.182026"
       id="rect61787" /><rect
       x="133.56683"
       y="237.93089"
       width="122.07723"
       height="52.182026"
       id="rect63027" /><rect
       x="133.56683"
       y="237.93089"
       width="122.07723"
       height="52.182026"
       id="rect56346-8-1" /><rect
       x="111.06633"
       y="235.53722"
       width="226.92001"
       height="105.32152"
       id="rect259-5" /><rect
       x="133.56683"
       y="237.93089"
       width="122.07723"
       height="52.182026"
       id="rect56346-8-6" /><rect
       x="133.56683"
       y="237.93089"
       width="122.07723"
       height="52.182026"
       id="rect61787-4" /><rect
       x="133.56683"
       y="237.93089"
       width="122.07723"
       height="52.182026"
       id="rect63027-6" /><rect
       x="133.56683"
       y="237.93089"
       width="122.07723"
       height="52.182026"
       id="rect56346-8-1-4" /><rect
       x="111.06633"
       y="235.53722"
       width="226.92001"
       height="105.32152"
       id="rect259-1" /><rect
       x="133.56683"
       y="237.93089"
       width="122.07723"
       height="52.182026"
       id="rect56346-8-0" /><rect
       x="133.56683"
       y="237.93089"
       width="122.07723"
       height="52.182026"
       id="rect61787-3" /><rect
       x="133.56683"
       y="237.93089"
       width="122.07723"
       height="52.182026"
       id="rect63027-5" /><rect
       x="133.56683"
       y="237.93089"
       width="122.07723"
       height="52.182026"
       id="rect56346-8-1-0" /><rect
       x="114.41747"
       y="386.81723"
       width="134.04556"
       height="68.937721"
       id="rect9696" /></defs><g
     inkscape:label="Laag 1"
     inkscape:groupmode="layer"
     id="layer1"
     transform="translate(-30.561961,-93.386292)"><a
       id="a42081"
       xlink:href="exp2-paneel4.html"
       xlink:title="Vorige expositie"
       transform="translate(7.489948,-15.928771)"><g
         id="g42051"><rect
           style="fill:#283583;fill-opacity:1;stroke:#ffffff;stroke-width:0;stroke-linejoin:round;stroke-dasharray:none;paint-order:markers stroke fill"
           id="rect4913"
           width="9.5249996"
           height="9.5249996"
           x="-58.266609"
           y="109.31506"
           rx="1.3229166"
           ry="1.3229166"
           transform="scale(-1,1)" /><path
           d="m 53.545728,112.79077 a 0.20289451,0.20289451 0 0 0 -0.286758,0 l -1.149736,1.14974 a 0.20289451,0.20289451 0 0 0 0,0.28676 l 1.149736,1.14973 a 0.20316503,0.20316503 0 0 0 0.281888,-0.005 0.20316503,0.20316503 0 0 0 0.0049,-0.28188 l -0.803463,-0.80347 h 2.012714 a 0.202895,0.202895 0 0 0 0,-0.40579 h -2.012714 l 0.803463,-0.80346 a 0.20289451,0.20289451 0 0 0 0,-0.28676 z"
           id="path4736"
           style="fill:#ffffff;fill-opacity:1;stroke:#ffffff;stroke-width:0.135263;stroke-dasharray:none;stroke-opacity:1" /></g></a><a
       id="a41889"
       xlink:href="exp3.html"
       xlink:title="Volgende expositie"
       transform="translate(8.812865,-16.287029)"><g
         id="g41699"
         transform="translate(1.4909205,-0.46288633)"><rect
           style="fill:#283583;fill-opacity:1;stroke:#ffffff;stroke-width:0;stroke-linejoin:round;stroke-dasharray:none;paint-order:markers stroke fill"
           id="rect4913-0"
           width="9.5249987"
           height="9.5249987"
           x="69.730247"
           y="110.13621"
           rx="1.35263"
           ry="1.35263" /><path
           d="m 74.452051,113.64399 a 0.1984375,0.1984375 0 0 1 0.280458,0 l 1.124479,1.12448 a 0.1984375,0.1984375 0 0 1 0,0.28046 l -1.124479,1.12448 a 0.19870208,0.19870208 0 0 1 -0.275696,-0.005 0.19870208,0.19870208 0 0 1 -0.0048,-0.2757 l 0.785812,-0.78581 h -1.9685 a 0.19844,0.19844 0 0 1 0,-0.39688 h 1.9685 l -0.785812,-0.78581 a 0.1984375,0.1984375 0 0 1 0,-0.28046 z"
           id="path4736-1"
           style="fill:#ffffff;fill-opacity:1;stroke:#ffffff;stroke-width:0.132292;stroke-dasharray:none;stroke-opacity:1" /></g></a><a
       id="a1015"
       xlink:href="exp2-schilderijenwandL.html"
       xlink:title="audio lang"><g
         id="g1008"><rect
           style="fill:#283583;fill-opacity:1;stroke:#010000;stroke-width:0;stroke-linejoin:round;paint-order:markers stroke fill"
           id="rect2732"
           width="10.958052"
           height="9.5249996"
           x="67.339043"
           y="93.386292"
           ry="1.3229166"
           rx="1.5219516" /><text
           xml:space="preserve"
           style="font-style:normal;font-variant:normal;font-weight:normal;font-stretch:normal;font-size:3.52777px;font-family:sans-serif;-inkscape-font-specification:'sans-serif, Normal';font-variant-ligatures:normal;font-variant-caps:normal;font-variant-numeric:normal;font-variant-east-asian:normal;fill:#ffffff;stroke:#000000;stroke-width:0;stroke-linecap:square;stroke-miterlimit:0;paint-order:markers stroke fill"
           x="68.226677"
           y="96.861153"
           id="text434"><tspan
             sodipodi:role="line"
             id="tspan991"
             x="68.226677"
             y="96.861153">audio</tspan><tspan
             sodipodi:role="line"
             id="tspan993"
             x="68.226677"
             y="101.27087"> lang</tspan></text></g></a></g></svg>
